# xmcd
# 
# Track frame offsets:
#     150
#     17932
#     37107
#     51290
#     68840
#     89552
#     107397
#     120620
#     139170
#     155177
# 
# Disc length: 2249
# 
# Revision: 1
# Processed by: cddbd v1.5.2PL0 Copyright (c) Steve Scherf et al.
# Submitted via: fre:ac v1.0.17
# 
DISCID=8e08c70a
DTITLE=Nitty Gritty Dirt Band - The rest of the dream
DYEAR=1990
DGENRE=Country
TTITLE0=From small things (Big things one day come)
TTITLE1=Waitin' on a dark eyed gal
TTITLE2=Junior's grill
TTITLE3=Blow out the stars, turn off the moon
TTITLE4=The rest of the dream
TTITLE5=Just enough Ashland City
TTITLE6=Hillbilly Hollywood
TTITLE7=Snowballs
TTITLE8=Wishing well
TTITLE9=You made life good again
EXTD=
EXTT0=
EXTT1=
EXTT2=
EXTT3=
EXTT4=
EXTT5=
EXTT6=
EXTT7=
EXTT8=
EXTT9=
PLAYORDER=
